<?xml version="1.0" encoding="UTF-8" standalone="no"?>
<!-- Created with Inkscape (http://www.inkscape.org/) -->

<svg
   width="256"
   height="256"
   viewBox="0 0 67.733334 67.733333"
   version="1.1"
   id="svg1"
   xml:space="preserve"
   inkscape:version="1.4.3 (fcd0343856, 2026-01-01)"
   sodipodi:docname="logo.svg"
   inkscape:export-filename="ha-fujitsu/custom_components/logo.png"
   inkscape:export-xdpi="96"
   inkscape:export-ydpi="96"
   xmlns:inkscape="http://www.inkscape.org/namespaces/inkscape"
   xmlns:sodipodi="http://sodipodi.sourceforge.net/DTD/sodipodi-0.dtd"
   xmlns="http://www.w3.org/2000/svg"
   xmlns:svg="http://www.w3.org/2000/svg"><sodipodi:namedview
     id="namedview1"
     pagecolor="#ffffff"
     bordercolor="#000000"
     borderopacity="0.25"
     inkscape:showpageshadow="2"
     inkscape:pageopacity="0.0"
     inkscape:pagecheckerboard="0"
     inkscape:deskcolor="#d1d1d1"
     inkscape:document-units="px"
     inkscape:zoom="1.3113356"
     inkscape:cx="91.891048"
     inkscape:cy="141.45883"
     inkscape:window-width="1920"
     inkscape:window-height="1115"
     inkscape:window-x="0"
     inkscape:window-y="0"
     inkscape:window-maximized="1"
     inkscape:current-layer="layer1" /><defs
     id="defs1" /><g
     inkscape:label="Layer 1"
     inkscape:groupmode="layer"
     id="layer1"><path
       style="fill:#0000ff;stroke-width:0.683672"
       d="M 9.0739288,35.737709 C 8.6959653,35.335386 8.6627847,35.142827 8.6860234,33.486537 8.7096648,31.801558 8.665561,31.55801 8.0532456,29.992172 7.5188551,28.625608 7.3951466,28.070859 7.3955383,27.042805 7.3962172,25.264147 8.0130306,23.742871 8.9357334,23.24415 l 0.6693378,-0.361776 0.6747168,0.361776 c 0.883967,0.473975 1.102966,1.095816 0.781864,2.220079 -0.451706,1.581545 -0.431257,1.885023 0.243356,3.611442 0.743521,1.902762 0.932122,3.128415 0.747163,4.855539 -0.107549,1.00428 -0.223045,1.316449 -0.642095,1.735499 -0.679875,0.679874 -1.7340416,0.711913 -2.3361472,0.071 z m 10.6357072,0.09401 c -0.399216,-0.323406 -0.42804,-0.473669 -0.442413,-2.306326 -0.0142,-1.810286 -0.06267,-2.071179 -0.633109,-3.407489 -0.550103,-1.288672 -0.617735,-1.625345 -0.617735,-3.075101 0,-1.382221 0.07218,-1.781936 0.478089,-2.647687 0.388545,-0.828708 0.595412,-1.058413 1.104497,-1.226426 0.714401,-0.235773 1.312836,-0.07513 1.820652,0.488738 0.419417,0.46571 0.43336,1.16317 0.04592,2.297086 -0.345864,1.012242 -0.284322,1.626657 0.293848,2.93371 0.837962,1.894349 1.117799,4.30846 0.681517,5.879327 -0.351864,1.266909 -1.789542,1.827063 -2.731268,1.064168 z m 10.508881,-0.114605 c -0.403522,-0.429531 -0.429355,-0.578899 -0.383534,-2.217644 0.04563,-1.631957 0.0045,-1.872912 -0.577316,-3.383328 -0.834437,-2.166168 -0.945252,-3.016299 -0.579349,-4.444557 0.550559,-2.149041 1.329404,-2.918374 2.547486,-2.51637 1.122099,0.370326 1.442693,1.294299 0.899865,2.593469 -0.404301,0.967629 -0.332633,1.803003 0.277737,3.237352 0.781365,1.836179 1.017159,3.399874 0.761779,5.051807 -0.163597,1.058226 -0.30035,1.40797 -0.67755,1.732822 -0.669158,0.576292 -1.700272,0.551958 -2.269118,-0.05355 z M 5.4664226,18.065801 C 3.3733177,17.718147 1.5447647,16.304301 0.58333666,14.290178 L 0.10843045,13.295292 0.05421522,7.1853596 0,1.0754253 0.53770837,0.53771247 1.0754236,0 H 20.277415 39.479408 l 0.537712,0.53771247 0.537713,0.53771283 -0.05418,6.1099343 -0.05419,6.1099324 -0.507878,1.034244 c -1.003931,2.044406 -2.809655,3.389758 -5.034197,3.750721 -1.428651,0.231818 -28.0339637,0.218754 -29.4380355,-0.01445 z M 32.68003,13.121175 c 1.149649,-0.480354 1.38421,-2.064001 0.42298,-2.855762 -0.357723,-0.2946557 -1.240959,-0.316555 -12.767014,-0.316555 -8.524183,0 -12.4965013,0.060901 -12.747902,0.195448 -0.2008589,0.107497 -0.4814989,0.473795 -0.6236446,0.813998 -0.354785,0.84912 0.024058,1.787278 0.8701898,2.154904 0.8976155,0.389997 23.9134018,0.397376 24.8453908,0.008 z"
       id="path1" /><path
       style="fill:#ff0000;stroke-width:0.68361"
       d="m 39.32848,44.857693 c -0.184289,-0.480249 0.283797,-1.947724 0.938642,-2.942695 0.724657,-1.101044 2.123571,-2.098714 3.376974,-2.408369 1.302903,-0.321885 1.405093,-0.22286 1.405093,1.361569 0,1.250502 -0.03026,1.362215 -0.368949,1.362215 -0.55772,0 -1.709456,0.646487 -2.033909,1.141665 -0.158209,0.241458 -0.358688,0.714153 -0.445509,1.050432 l -0.157854,0.611416 -1.303018,0.05319 c -1.048063,0.04279 -1.324238,-0.0021 -1.41147,-0.229427 z"
       id="path12" /><path
       style="fill:#ff0000;stroke-width:0.68361"
       d="m 33.654267,44.258004 c 0,-1.209855 0.433805,-2.786432 1.204887,-4.378924 0.808541,-1.669853 3.017483,-3.950413 4.674732,-4.826295 1.340198,-0.708315 3.502478,-1.323345 4.652527,-1.323345 h 0.862776 v 1.255427 c 0,0.690486 -0.08078,1.305352 -0.179505,1.366369 -0.09873,0.06102 -0.688823,0.18963 -1.311321,0.285806 -3.535918,0.546304 -6.436298,3.501168 -7.026247,7.158238 l -0.214403,1.329081 H 34.98599 33.654267 Z"
       id="path11" /><path
       style="fill:#ff0000;stroke-width:0.68361"
       d="m 48.368184,60.453245 c -3.993182,-4.004049 -7.350237,-7.457871 -7.460124,-7.67516 -0.299684,-0.592592 -0.244589,-2.079385 0.09613,-2.594287 0.48507,-0.73304 8.616014,-8.859932 9.145641,-9.141084 0.627748,-0.33324 2.013212,-0.333118 2.640605,2.33e-4 0.268629,0.142729 3.740675,3.517457 7.715658,7.499396 l 7.227239,7.239889 -0.224997,1.08934 c -1.013902,4.908839 -5.22795,9.312466 -10.126174,10.581722 -0.594388,0.154022 -1.23212,0.280039 -1.41718,0.280039 -0.202222,0 -3.233295,-2.904704 -7.596803,-7.280089 z"
       id="path10" /><path
       style="fill:#f9f9f9;stroke-width:0.68361"
       d="m 52.037213,47.991282 c 0.469854,-0.519183 0.417712,-1.567652 -0.09876,-1.985865 -0.623682,-0.505027 -1.536463,-0.441751 -1.992599,0.138131 -0.472942,0.601249 -0.475959,1.154851 -0.0095,1.747827 0.562279,0.714821 1.503869,0.759598 2.100881,0.09991 z"
       id="path9" /><path
       style="fill:#f9f9f9;stroke-width:0.68361"
       d="m 55.424925,51.622618 c 0.984805,-0.774648 0.409542,-2.410554 -0.847667,-2.410554 -0.88751,0 -1.388839,0.488521 -1.388839,1.353356 0,0.765048 0.631842,1.432069 1.356539,1.432069 0.221867,0 0.617853,-0.168692 0.879967,-0.374871 z"
       id="path8" /><path
       style="fill:#f9f9f9;stroke-width:0.68361"
       d="m 47.82831,52.165233 c 0.367596,-0.289151 0.476571,-0.534304 0.476571,-1.072103 0,-0.537799 -0.108975,-0.782952 -0.476571,-1.072104 -0.262115,-0.206179 -0.6581,-0.374871 -0.879967,-0.374871 -0.652116,0 -1.356538,0.670453 -1.356538,1.291121 0,1.363589 1.215588,2.031009 2.236505,1.227957 z"
       id="path7" /><path
       style="fill:#f9f9f9;stroke-width:0.68361"
       d="m 59.057709,55.057427 c 0.223417,-0.214626 0.3527,-0.580884 0.3527,-0.999197 0,-0.810703 -0.565352,-1.337253 -1.435797,-1.337253 -1.157779,0 -1.785665,1.529829 -0.942667,2.296783 0.73621,0.669798 1.357166,0.681956 2.025764,0.03967 z"
       id="path6" /><path
       style="fill:#f9f9f9;stroke-width:0.68361"
       d="m 51.547446,55.500097 c 0.766264,-0.974147 0.169546,-2.236505 -1.057198,-2.236505 -0.864835,0 -1.353357,0.501329 -1.353357,1.388838 0,1.257209 1.635907,1.832473 2.410555,0.847667 z"
       id="path5" /><path
       style="fill:#f9f9f9;stroke-width:0.68361"
       d="m 62.511538,58.60753 c 0.279852,-0.279851 0.443957,-0.65061 0.443957,-1.003016 0,-0.68663 -0.703203,-1.446974 -1.338231,-1.446974 -0.704269,0 -1.435136,0.736896 -1.435136,1.446974 0,0.428627 0.140565,0.720776 0.492411,1.023421 0.633718,0.545102 1.278655,0.537939 1.836998,-0.02041 z"
       id="path4" /><path
       style="fill:#f9f9f9;stroke-width:0.68361"
       d="m 54.926761,59.17055 c 0.928959,-0.799058 0.359903,-2.470394 -0.841119,-2.470394 -1.295676,0 -1.917097,1.528774 -0.99588,2.44999 0.558343,0.558343 1.203279,0.565506 1.836999,0.02041 z"
       id="path3" /><path
       style="fill:#f9f9f9;stroke-width:0.68361"
       d="m 58.532359,62.58671 c 0.558343,-0.558343 0.565506,-1.20328 0.02041,-1.836998 -0.302645,-0.351846 -0.594794,-0.492411 -1.02342,-0.492411 -0.710079,0 -1.446974,0.730867 -1.446974,1.435136 0,0.635028 0.760344,1.33823 1.446974,1.33823 0.352405,0 0.723164,-0.164106 1.003016,-0.443957 z"
       id="path2" /></g></svg>
